<svg id="svg" version="1.1" xmlns="http://www.w3.org/2000/svg" xmlns:xlink="http://www.w3.org/1999/xlink" width="400" height="400" viewBox="0, 0, 400,400"><g id="svgg"><path id="path0" d="M60.821 183.580 C 59.590 184.779,58.691 186.044,58.542 186.788 C 58.407 187.464,58.140 188.114,57.948 188.232 C 56.967 188.838,57.939 193.985,59.323 195.514 C 59.695 195.926,60.000 196.474,60.000 196.731 C 60.000 196.989,60.270 197.200,60.600 197.200 C 60.930 197.200,61.200 197.380,61.200 197.600 C 61.200 197.820,61.388 198.000,61.617 198.000 C 61.846 198.000,62.420 198.360,62.892 198.800 C 63.832 199.675,68.517 199.982,69.000 199.200 C 69.136 198.980,69.582 198.800,69.992 198.800 C 71.099 198.800,74.247 195.463,74.545 193.973 C 76.082 186.290,72.830 181.600,65.965 181.600 L 62.853 181.600 60.821 183.580 M90.400 182.000 C 90.400 182.220,90.125 182.400,89.789 182.400 C 88.996 182.400,85.600 185.796,85.600 186.589 C 85.600 186.925,85.420 187.200,85.200 187.200 C 84.965 187.200,84.800 188.600,84.800 190.600 C 84.800 192.600,84.965 194.000,85.200 194.000 C 85.420 194.000,85.600 194.275,85.600 194.611 C 85.600 195.642,89.060 198.800,90.189 198.800 C 90.745 198.800,91.200 198.980,91.200 199.200 C 91.200 199.755,384.657 199.755,385.000 199.200 C 385.136 198.980,385.573 198.800,385.972 198.800 C 387.364 198.800,389.983 195.955,390.391 194.000 C 390.597 193.010,390.887 191.692,391.035 191.071 C 391.183 190.450,391.114 189.550,390.881 189.071 C 390.648 188.592,390.349 187.570,390.216 186.800 C 389.953 185.274,388.900 183.891,386.938 182.497 L 385.677 181.600 238.038 181.600 C 139.879 181.600,90.400 181.734,90.400 182.000 M5.400 216.400 C 5.264 216.620,4.735 216.800,4.225 216.800 C 3.683 216.800,2.610 217.467,1.648 218.400 L 0.000 219.999 0.000 225.253 C 0.000 230.845,0.625 232.398,2.876 232.400 C 3.248 232.400,3.664 232.580,3.800 232.800 C 3.936 233.020,5.657 233.200,7.624 233.200 C 9.741 233.200,11.200 233.037,11.200 232.800 C 11.200 232.580,11.616 232.400,12.125 232.400 C 13.080 232.400,15.200 230.524,15.200 229.678 C 15.200 229.415,15.380 229.200,15.600 229.200 C 15.820 229.200,16.000 228.671,16.000 228.024 C 16.000 227.377,16.180 226.736,16.400 226.600 C 16.620 226.464,16.800 225.744,16.800 225.000 C 16.800 224.256,16.620 223.536,16.400 223.400 C 16.180 223.264,16.000 222.738,16.000 222.230 C 16.000 219.087,6.850 214.055,5.400 216.400 M32.600 216.400 C 32.464 216.620,32.003 216.800,31.576 216.800 C 31.149 216.800,30.800 216.980,30.800 217.200 C 30.800 217.420,30.575 217.606,30.300 217.613 C 29.541 217.632,27.600 219.478,27.600 220.181 C 27.600 220.521,27.449 220.800,27.264 220.800 C 26.129 220.800,25.676 226.089,26.651 227.957 C 26.950 228.531,27.196 229.141,27.198 229.313 C 27.202 229.874,29.957 232.400,30.563 232.400 C 30.887 232.400,31.264 232.580,31.400 232.800 C 31.564 233.065,68.404 233.200,140.624 233.200 C 213.008 233.200,249.600 233.066,249.600 232.800 C 249.600 232.580,250.144 232.400,250.810 232.400 C 251.719 232.400,252.111 232.161,252.385 231.439 C 252.586 230.910,252.942 230.360,253.175 230.215 C 253.409 230.071,253.600 229.603,253.600 229.176 C 253.600 228.749,253.780 228.400,254.000 228.400 C 254.618 228.400,254.486 222.304,253.835 220.749 C 252.937 218.604,250.914 216.800,249.405 216.800 C 249.072 216.800,248.800 216.620,248.800 216.400 C 248.800 216.134,212.541 216.000,140.824 216.000 C 69.271 216.000,32.764 216.135,32.600 216.400 M65.800 250.800 C 65.664 251.020,64.933 251.200,64.176 251.200 C 63.419 251.200,62.800 251.380,62.800 251.600 C 62.800 251.820,62.432 252.000,61.982 252.000 C 61.131 252.000,59.200 253.653,59.200 254.382 C 59.200 254.612,59.020 254.800,58.800 254.800 C 58.580 254.800,58.400 255.250,58.400 255.800 C 58.400 256.350,58.220 256.800,58.000 256.800 C 57.774 256.800,57.600 257.933,57.600 259.400 C 57.600 260.867,57.774 262.000,58.000 262.000 C 58.220 262.000,58.400 262.283,58.400 262.629 C 58.400 262.974,58.625 263.483,58.900 263.758 C 59.175 264.034,59.850 264.829,60.400 265.526 C 60.950 266.223,61.625 266.794,61.900 266.796 C 62.175 266.798,62.400 266.980,62.400 267.200 C 62.400 267.420,62.850 267.600,63.400 267.600 C 63.950 267.600,64.400 267.780,64.400 268.000 C 64.400 268.220,65.199 268.400,66.176 268.400 C 67.153 268.400,68.064 268.220,68.200 268.000 C 68.336 267.780,68.977 267.600,69.624 267.600 C 70.271 267.600,70.800 267.420,70.800 267.200 C 70.800 266.980,71.012 266.800,71.272 266.800 C 72.077 266.800,74.285 264.076,74.549 262.756 C 75.506 257.971,73.833 252.000,71.535 252.000 C 71.157 252.000,70.736 251.820,70.600 251.600 C 70.464 251.380,69.654 251.200,68.800 251.200 C 67.946 251.200,67.136 251.020,67.000 250.800 C 66.864 250.580,66.594 250.400,66.400 250.400 C 66.206 250.400,65.936 250.580,65.800 250.800 M89.600 251.600 C 89.600 251.820,89.178 252.000,88.662 252.000 C 87.727 252.000,86.400 253.097,86.400 253.870 C 86.400 254.093,86.064 254.580,85.654 254.951 C 84.493 256.001,84.441 261.864,85.582 263.088 C 86.032 263.571,86.400 264.109,86.400 264.283 C 86.401 264.914,88.309 266.800,88.947 266.800 C 89.306 266.800,89.600 266.980,89.600 267.200 C 89.600 267.420,90.140 267.600,90.800 267.600 C 91.460 267.600,92.000 267.780,92.000 268.000 C 92.000 268.266,135.333 268.400,221.200 268.400 C 307.067 268.400,350.400 268.266,350.400 268.000 C 350.400 267.780,350.940 267.600,351.600 267.600 C 352.260 267.600,352.800 267.450,352.800 267.268 C 352.800 267.085,353.234 266.703,353.764 266.419 C 355.024 265.745,357.027 262.587,357.356 260.756 C 357.918 257.625,355.499 252.000,353.589 252.000 C 353.181 252.000,352.736 251.820,352.600 251.600 C 352.436 251.335,308.129 251.200,220.976 251.200 C 133.659 251.200,89.600 251.334,89.600 251.600 M20.000 285.200 C 20.000 285.420,19.640 285.600,19.200 285.600 C 18.760 285.600,18.400 285.780,18.400 286.000 C 18.400 286.220,18.085 286.401,17.700 286.403 C 17.315 286.404,16.552 287.079,16.004 287.903 C 15.456 288.726,14.915 289.490,14.801 289.600 C 13.392 290.971,13.472 298.000,14.897 298.000 C 15.064 298.000,15.200 298.278,15.200 298.618 C 15.200 301.122,24.532 304.452,25.800 302.400 C 25.936 302.180,26.311 302.000,26.634 302.000 C 27.397 302.000,30.800 298.597,30.800 297.834 C 30.800 297.511,30.980 297.136,31.200 297.000 C 31.420 296.864,31.600 295.424,31.600 293.800 C 31.600 292.176,31.420 290.736,31.200 290.600 C 30.980 290.464,30.800 290.089,30.800 289.766 C 30.800 289.003,27.397 285.600,26.634 285.600 C 26.311 285.600,25.936 285.420,25.800 285.200 C 25.664 284.980,24.303 284.800,22.776 284.800 C 21.192 284.800,20.000 284.972,20.000 285.200 M47.400 285.200 C 47.264 285.420,46.780 285.600,46.324 285.600 C 45.868 285.600,44.695 286.400,43.717 287.378 L 41.940 289.155 41.658 293.008 C 41.503 295.128,41.517 296.948,41.688 297.054 C 41.860 297.160,42.000 297.543,42.000 297.904 C 42.000 298.788,45.447 302.000,46.397 302.000 C 46.813 302.000,47.264 302.180,47.400 302.400 C 47.563 302.663,65.592 302.800,100.186 302.800 L 152.724 302.800 154.462 301.900 C 155.418 301.405,156.785 300.380,157.500 299.622 L 158.800 298.244 158.800 293.785 L 158.800 289.327 157.040 287.464 C 156.071 286.439,155.002 285.600,154.663 285.600 C 154.324 285.600,153.936 285.420,153.800 285.200 C 153.637 284.937,135.470 284.800,100.600 284.800 C 65.730 284.800,47.563 284.937,47.400 285.200 M178.400 285.200 C 178.400 285.420,178.069 285.600,177.664 285.600 C 176.739 285.600,173.200 288.899,173.200 289.760 C 173.200 290.112,173.020 290.400,172.800 290.400 C 172.565 290.400,172.400 291.800,172.400 293.800 C 172.400 295.800,172.565 297.200,172.800 297.200 C 173.020 297.200,173.200 297.435,173.200 297.722 C 173.200 298.508,175.638 301.011,177.330 301.961 L 178.824 302.800 286.628 302.800 L 394.432 302.800 396.114 301.942 C 399.554 300.187,399.986 299.273,399.994 293.742 C 400.001 288.296,399.652 287.539,396.258 285.632 L 394.776 284.800 286.588 284.800 C 214.729 284.800,178.400 284.934,178.400 285.200 M194.400 319.600 C 194.400 319.820,193.805 320.000,193.078 320.000 C 191.610 320.000,188.800 322.203,188.800 323.354 C 188.800 323.709,188.664 324.000,188.497 324.000 C 187.996 324.000,187.200 327.065,187.200 328.994 C 187.200 329.987,187.380 330.800,187.600 330.800 C 187.820 330.800,188.000 331.340,188.000 332.000 C 188.000 332.660,188.180 333.200,188.400 333.200 C 188.620 333.200,188.800 333.378,188.800 333.595 C 188.800 338.070,200.185 338.526,202.589 334.148 C 202.815 333.736,203.108 333.310,203.240 333.200 C 204.329 332.293,205.007 324.800,204.000 324.800 C 203.780 324.800,203.600 324.565,203.600 324.278 C 203.600 323.619,201.044 320.800,200.446 320.800 C 200.201 320.800,200.000 320.620,200.000 320.400 C 200.000 320.180,199.561 320.000,199.024 320.000 C 198.487 320.000,197.936 319.820,197.800 319.600 C 197.664 319.380,196.843 319.200,195.976 319.200 C 195.109 319.200,194.400 319.380,194.400 319.600 M221.000 319.600 C 220.864 319.820,220.403 320.000,219.976 320.000 C 219.549 320.000,219.200 320.180,219.200 320.400 C 219.200 320.620,218.924 320.800,218.587 320.800 C 218.249 320.800,217.349 321.424,216.587 322.187 C 215.824 322.949,215.200 323.849,215.200 324.187 C 215.200 324.524,215.020 324.800,214.800 324.800 C 214.214 324.800,214.299 331.033,214.900 332.091 C 215.750 333.587,217.728 335.503,219.327 336.379 L 220.853 337.216 287.838 337.213 C 324.679 337.211,355.297 337.091,355.877 336.945 C 357.440 336.553,360.400 333.921,360.400 332.925 C 360.400 332.636,360.580 332.400,360.800 332.400 C 361.020 332.400,361.200 331.871,361.200 331.224 C 361.200 330.577,361.380 329.936,361.600 329.800 C 361.820 329.664,362.000 328.933,362.000 328.176 C 362.000 327.419,361.820 326.800,361.600 326.800 C 361.380 326.800,361.200 326.350,361.200 325.800 C 361.200 325.250,361.020 324.800,360.800 324.800 C 360.580 324.800,360.400 324.480,360.400 324.088 C 360.400 323.697,360.040 323.117,359.600 322.800 C 359.160 322.483,358.800 322.021,358.800 321.774 C 358.800 320.943,357.348 320.000,356.069 320.000 C 355.371 320.000,354.800 319.820,354.800 319.600 C 354.800 319.335,332.275 319.200,288.024 319.200 C 243.937 319.200,221.163 319.336,221.000 319.600 M112.800 354.800 C 112.800 355.020,112.545 355.200,112.234 355.200 C 111.923 355.200,111.158 355.740,110.535 356.400 C 109.912 357.060,109.177 357.600,108.901 357.600 C 108.626 357.600,108.421 357.735,108.447 357.900 C 108.582 358.750,108.358 359.621,108.054 359.433 C 107.385 359.020,107.518 365.713,108.206 367.092 C 108.823 368.329,110.716 370.000,111.500 370.000 C 111.707 370.000,112.202 370.360,112.600 370.800 C 113.599 371.903,119.034 371.975,120.225 370.900 C 120.651 370.515,121.517 369.933,122.148 369.606 C 122.780 369.280,123.397 368.740,123.519 368.406 C 123.642 368.073,123.848 367.710,123.979 367.600 C 125.561 366.267,125.460 357.600,123.863 357.600 C 123.675 357.600,123.017 357.060,122.400 356.400 C 121.783 355.740,120.991 355.200,120.640 355.200 C 120.288 355.200,120.000 355.020,120.000 354.800 C 120.000 354.563,118.533 354.400,116.400 354.400 C 114.267 354.400,112.800 354.563,112.800 354.800 M139.800 354.800 C 139.664 355.020,139.285 355.200,138.957 355.200 C 138.273 355.200,136.432 357.154,136.413 357.900 C 136.406 358.175,136.220 358.400,136.000 358.400 C 135.780 358.400,135.600 358.929,135.600 359.576 C 135.600 360.223,135.420 360.864,135.200 361.000 C 134.980 361.136,134.800 362.036,134.800 363.000 C 134.800 363.964,134.980 364.864,135.200 365.000 C 135.420 365.136,135.600 365.687,135.600 366.224 C 135.600 366.761,135.780 367.200,136.000 367.200 C 136.220 367.200,136.400 367.548,136.400 367.973 C 136.400 368.398,136.760 368.860,137.200 369.000 C 137.640 369.140,138.000 369.422,138.000 369.627 C 138.000 369.832,138.278 370.000,138.617 370.000 C 138.956 370.000,139.620 370.360,140.092 370.800 C 141.069 371.710,276.000 372.107,276.000 371.200 C 276.000 370.980,276.360 370.800,276.800 370.800 C 277.240 370.800,277.600 370.620,277.600 370.400 C 277.600 370.180,277.847 370.000,278.150 370.000 C 278.802 370.000,281.191 367.775,281.900 366.505 C 283.044 364.458,282.144 357.600,280.731 357.600 C 280.506 357.600,279.817 357.060,279.200 356.400 C 278.583 355.740,277.791 355.200,277.440 355.200 C 277.088 355.200,276.800 355.020,276.800 354.800 C 276.800 354.246,140.142 354.246,139.800 354.800 " stroke="none" fill="#e4147c" fill-rule="evenodd"></path><path id="path1" d="M225.750 28.802 C 225.558 28.990,224.230 29.186,222.800 29.238 C 221.370 29.290,220.106 29.472,219.991 29.643 C 219.876 29.814,218.886 29.996,217.791 30.048 C 216.696 30.099,215.668 30.335,215.506 30.571 C 215.315 30.850,215.210 30.808,215.206 30.451 C 215.202 30.037,215.068 30.011,214.662 30.349 C 214.366 30.594,213.061 30.866,211.762 30.952 C 208.715 31.154,206.800 31.596,206.800 32.099 C 206.800 32.318,206.495 32.251,206.123 31.949 C 205.663 31.576,205.543 31.560,205.747 31.900 C 206.052 32.409,205.936 32.451,203.920 32.565 C 203.326 32.599,202.711 32.756,202.553 32.913 C 202.396 33.071,201.957 33.200,201.579 33.200 C 201.201 33.200,200.389 33.461,199.774 33.780 C 199.160 34.098,198.509 34.268,198.329 34.156 C 198.148 34.044,198.000 34.143,198.000 34.376 C 198.000 34.609,197.640 34.800,197.200 34.800 C 196.760 34.800,196.400 34.980,196.400 35.200 C 196.400 35.420,196.265 35.556,196.100 35.501 C 195.669 35.360,192.242 36.507,191.978 36.881 C 191.855 37.054,191.283 37.235,190.706 37.283 C 190.130 37.331,189.745 37.512,189.852 37.685 C 189.960 37.858,189.782 38.000,189.457 38.000 C 189.132 38.000,188.807 38.178,188.733 38.397 C 188.660 38.615,188.118 38.833,187.529 38.881 C 186.940 38.930,186.545 39.112,186.652 39.285 C 186.760 39.458,186.387 39.600,185.824 39.600 C 185.261 39.600,184.800 39.738,184.800 39.906 C 184.800 40.383,181.557 41.669,180.946 41.435 C 180.646 41.319,180.400 41.399,180.400 41.613 C 180.400 41.826,180.122 42.000,179.783 42.000 C 179.152 42.000,178.431 42.486,177.313 43.665 C 176.966 44.031,176.462 44.245,176.193 44.142 C 175.924 44.039,175.588 44.253,175.448 44.619 C 175.301 45.003,174.942 45.187,174.597 45.054 C 174.268 44.928,174.000 44.999,174.000 45.213 C 174.000 45.426,173.739 45.600,173.420 45.600 C 173.101 45.600,172.696 45.844,172.520 46.142 C 172.192 46.697,170.400 47.786,170.400 47.430 C 170.400 47.321,169.635 47.943,168.700 48.811 C 167.765 49.679,166.815 50.392,166.588 50.395 C 166.362 50.398,165.917 50.760,165.600 51.200 C 165.283 51.640,164.613 52.000,164.112 52.000 C 163.610 52.000,163.200 52.180,163.200 52.400 C 163.200 52.620,162.919 52.800,162.576 52.800 C 162.233 52.800,162.064 52.980,162.200 53.200 C 162.336 53.420,162.168 53.600,161.827 53.600 C 161.486 53.600,160.710 54.109,160.103 54.732 C 159.497 55.354,158.685 55.978,158.300 56.119 C 157.915 56.260,157.600 56.569,157.600 56.806 C 157.600 57.043,157.150 57.686,156.600 58.236 C 156.050 58.786,155.600 59.152,155.600 59.049 C 155.600 58.946,155.080 59.343,154.445 59.931 C 152.983 61.284,152.282 61.827,151.890 61.912 C 151.305 62.039,146.506 67.000,146.677 67.300 C 146.770 67.465,146.605 67.600,146.310 67.600 C 146.014 67.600,145.434 68.172,145.021 68.872 C 144.608 69.571,143.759 70.678,143.135 71.331 C 142.511 71.984,142.000 72.629,142.000 72.764 C 142.000 72.900,141.596 73.188,141.102 73.405 C 140.608 73.622,139.988 74.250,139.725 74.800 C 139.462 75.350,138.618 76.485,137.849 77.323 C 137.079 78.161,136.439 78.926,136.425 79.023 C 136.411 79.120,136.400 79.481,136.400 79.824 C 136.400 80.167,136.220 80.336,136.000 80.200 C 135.780 80.064,135.600 80.241,135.600 80.594 C 135.600 80.946,134.925 81.962,134.100 82.851 C 133.275 83.739,132.349 84.946,132.042 85.533 C 131.735 86.120,131.375 86.690,131.242 86.800 C 130.886 87.094,130.055 88.469,129.609 89.500 C 129.395 89.995,129.035 90.400,128.810 90.400 C 128.584 90.400,128.400 90.760,128.400 91.200 C 128.400 91.640,128.209 92.000,127.976 92.000 C 127.743 92.000,127.655 92.165,127.779 92.366 C 127.903 92.567,127.814 92.795,127.581 92.873 C 127.218 92.994,126.952 93.712,126.831 94.900 C 126.814 95.065,126.530 95.200,126.200 95.200 C 125.679 95.200,125.337 96.733,125.553 98.100 C 125.579 98.265,125.420 98.400,125.200 98.400 C 124.980 98.400,124.800 98.670,124.800 99.000 C 124.800 99.330,124.620 99.600,124.400 99.600 C 124.180 99.600,124.000 100.050,124.000 100.600 C 124.000 101.150,123.820 101.600,123.600 101.600 C 123.380 101.600,123.200 101.968,123.200 102.417 C 123.200 102.866,122.840 103.620,122.400 104.092 C 121.960 104.564,121.600 105.288,121.600 105.699 C 121.600 106.111,121.420 106.336,121.200 106.200 C 120.967 106.056,120.800 106.463,120.800 107.176 C 120.800 107.849,120.620 108.400,120.400 108.400 C 120.180 108.400,120.000 108.861,120.000 109.424 C 120.000 110.129,119.845 110.358,119.500 110.159 C 119.225 110.001,119.128 110.013,119.284 110.187 C 119.440 110.360,119.305 111.131,118.984 111.900 C 118.663 112.669,118.400 113.636,118.400 114.049 C 118.400 114.462,118.220 114.800,118.000 114.800 C 117.780 114.800,117.600 115.130,117.600 115.533 C 117.600 115.937,117.475 116.391,117.323 116.544 C 117.171 116.696,116.986 117.217,116.912 117.702 C 116.838 118.186,116.602 118.758,116.389 118.971 C 115.863 119.497,115.894 120.113,116.429 119.782 C 116.666 119.636,116.475 120.269,116.006 121.189 C 115.336 122.502,115.254 122.983,115.625 123.430 C 115.885 123.744,115.933 124.000,115.731 124.000 C 115.529 124.000,115.318 124.675,115.263 125.499 C 115.207 126.324,114.990 127.170,114.781 127.379 C 114.571 127.589,114.400 128.624,114.400 129.680 C 114.400 130.736,114.251 131.600,114.068 131.600 C 113.886 131.600,113.696 132.635,113.646 133.900 C 113.596 135.165,113.385 136.260,113.178 136.333 C 112.970 136.407,112.800 137.701,112.800 139.210 C 112.800 140.718,112.647 142.047,112.461 142.162 C 111.431 142.799,112.098 158.330,113.145 158.100 C 113.395 158.045,113.600 158.330,113.600 158.732 C 113.600 159.135,114.050 159.706,114.600 160.000 C 115.150 160.294,115.600 160.685,115.600 160.868 C 115.600 161.050,170.500 161.200,237.600 161.200 C 318.667 161.200,359.600 161.066,359.600 160.800 C 359.600 160.580,359.920 160.400,360.312 160.400 C 360.703 160.400,361.283 160.040,361.600 159.600 C 361.917 159.160,362.407 158.800,362.688 158.800 C 362.970 158.800,363.201 158.575,363.202 158.300 C 363.204 158.025,363.448 157.334,363.746 156.763 C 364.325 155.653,364.451 148.317,363.900 147.766 C 363.735 147.602,363.600 145.617,363.600 143.357 C 363.600 141.049,363.425 139.139,363.200 139.000 C 362.980 138.864,362.800 137.683,362.800 136.376 C 362.800 135.059,362.622 134.000,362.400 134.000 C 362.180 134.000,362.000 133.111,362.000 132.024 C 362.000 130.937,361.820 129.936,361.600 129.800 C 361.380 129.664,361.200 128.753,361.200 127.776 C 361.200 126.799,361.020 126.000,360.800 126.000 C 360.580 126.000,360.400 125.385,360.400 124.633 C 360.400 123.882,360.228 123.207,360.018 123.133 C 359.807 123.060,359.591 122.337,359.537 121.526 C 359.484 120.715,359.296 120.141,359.120 120.249 C 358.944 120.358,358.800 119.357,358.800 118.024 C 358.800 116.691,358.659 115.600,358.487 115.600 C 358.315 115.600,357.925 114.745,357.620 113.700 C 357.315 112.655,356.917 111.530,356.736 111.200 C 356.435 110.653,355.306 107.561,355.055 106.600 C 354.691 105.202,354.297 104.400,353.973 104.400 C 353.768 104.400,353.600 104.051,353.600 103.624 C 353.600 103.197,353.420 102.736,353.200 102.600 C 352.980 102.464,352.800 102.003,352.800 101.576 C 352.800 101.149,352.649 100.800,352.464 100.800 C 352.279 100.800,351.891 100.083,351.602 99.206 C 351.313 98.329,350.744 97.311,350.338 96.944 C 349.932 96.577,349.599 95.989,349.598 95.638 C 349.597 95.287,349.058 94.425,348.399 93.723 C 347.741 93.021,347.371 92.342,347.576 92.215 C 347.986 91.961,346.458 88.800,345.926 88.800 C 345.747 88.800,345.600 88.440,345.600 88.000 C 345.600 87.560,345.464 87.200,345.298 87.200 C 345.131 87.200,344.756 86.659,344.463 85.998 C 344.170 85.336,343.766 84.897,343.565 85.021 C 343.364 85.146,343.200 84.860,343.200 84.386 C 343.200 83.862,342.887 83.443,342.400 83.316 C 341.960 83.201,341.600 82.801,341.600 82.428 C 341.600 82.055,341.060 81.232,340.400 80.600 C 339.740 79.968,339.200 79.233,339.200 78.968 C 339.200 78.703,338.953 78.391,338.651 78.275 C 338.350 78.159,337.984 77.589,337.838 77.008 C 337.573 75.954,334.639 72.711,333.566 72.287 C 333.252 72.163,333.207 72.049,333.465 72.032 C 333.721 72.014,332.326 70.403,330.365 68.452 C 328.404 66.500,326.800 64.782,326.800 64.634 C 326.800 64.236,324.895 62.400,324.482 62.400 C 324.288 62.400,323.583 61.815,322.916 61.100 C 321.555 59.641,320.106 58.400,319.764 58.400 C 319.394 58.400,316.400 55.167,316.400 54.767 C 316.400 54.565,316.098 54.400,315.729 54.400 C 315.360 54.400,314.540 53.815,313.906 53.100 C 313.173 52.272,312.679 51.977,312.548 52.288 C 312.402 52.633,312.093 52.545,311.495 51.988 C 311.030 51.555,310.453 51.200,310.213 51.200 C 309.973 51.200,309.517 50.840,309.200 50.400 C 308.883 49.960,308.393 49.600,308.112 49.600 C 307.830 49.600,307.600 49.450,307.600 49.268 C 307.600 49.085,307.105 48.681,306.500 48.370 C 305.895 48.060,305.109 47.489,304.753 47.103 C 304.397 46.716,303.902 46.400,303.653 46.400 C 303.404 46.400,303.200 46.261,303.200 46.091 C 303.200 45.726,300.304 44.108,300.173 44.400 C 300.124 44.510,299.705 44.257,299.242 43.838 C 298.779 43.419,298.400 43.198,298.400 43.347 C 298.400 43.496,297.958 43.329,297.418 42.975 C 296.877 42.621,296.219 42.464,295.956 42.627 C 295.663 42.808,295.581 42.754,295.745 42.489 C 296.068 41.967,295.374 41.486,294.098 41.350 C 292.907 41.223,290.800 40.298,290.800 39.902 C 290.800 39.736,290.440 39.600,290.000 39.600 C 289.560 39.600,289.199 39.465,289.197 39.300 C 289.193 38.911,287.230 38.000,286.396 38.000 C 286.041 38.000,285.364 37.640,284.892 37.200 C 284.399 36.740,283.474 36.397,282.717 36.394 C 281.719 36.389,281.546 36.294,282.000 36.000 C 282.493 35.681,282.451 35.611,281.767 35.606 C 281.308 35.603,280.808 35.475,280.655 35.322 C 280.502 35.169,280.098 35.003,279.757 34.953 C 279.416 34.903,278.837 34.731,278.469 34.571 C 278.101 34.411,277.444 34.212,277.009 34.128 C 276.573 34.045,276.042 33.802,275.829 33.589 C 275.615 33.375,275.037 33.200,274.544 33.200 C 274.051 33.200,273.534 33.017,273.396 32.793 C 273.258 32.570,272.982 32.487,272.784 32.610 C 272.586 32.732,271.861 32.542,271.175 32.187 C 270.488 31.832,269.834 31.633,269.722 31.745 C 269.610 31.857,269.041 31.765,268.459 31.541 C 267.876 31.316,266.050 31.042,264.400 30.932 C 262.750 30.821,261.220 30.584,261.000 30.405 C 260.780 30.226,259.610 29.977,258.400 29.853 C 253.542 29.354,250.562 28.918,249.834 28.599 C 249.232 28.336,249.142 28.385,249.411 28.832 C 249.684 29.284,249.636 29.306,249.177 28.941 C 248.487 28.392,226.305 28.260,225.750 28.802 " stroke="none" fill="#54cccb" fill-rule="evenodd"></path><path id="path2" d="M41.367 290.942 C 41.252 291.240,41.215 292.635,41.285 294.042 L 41.411 296.600 41.605 293.499 C 41.800 290.396,41.756 289.927,41.367 290.942 " stroke="none" fill="#e83ca4" fill-rule="evenodd"></path><path id="path3" d="" stroke="none" fill="#a09ca4" fill-rule="evenodd"></path><path id="path4" d="M148.584 64.417 C 147.936 65.133,147.929 65.202,148.522 64.974 C 148.895 64.831,149.200 64.543,149.200 64.334 C 149.200 64.124,149.408 64.081,149.662 64.238 C 149.948 64.415,150.015 64.348,149.838 64.062 C 149.465 63.458,149.448 63.463,148.584 64.417 " stroke="none" fill="#54d0a4" fill-rule="evenodd"></path></g></svg>