<?xml version="1.0" standalone="no"?>
<!DOCTYPE svg PUBLIC "-//W3C//DTD SVG 20010904//EN"
 "http://www.w3.org/TR/2001/REC-SVG-20010904/DTD/svg10.dtd">
<svg version="1.0" xmlns="http://www.w3.org/2000/svg"
 width="415.000000pt" height="415.000000pt" viewBox="0 0 415.000000 415.000000"
 preserveAspectRatio="xMidYMid meet">
<metadata>
Created by potrace 1.14, written by Peter Selinger 2001-2017
</metadata>
<g transform="translate(0.000000,415.000000) scale(0.100000,-0.100000)"
fill="#000000" stroke="none">
<path d="M3015 4110 c-88 -21 -123 -51 -220 -186 -41 -57 -75 -107 -75 -110 0
-3 -13 -24 -29 -47 -55 -80 -73 -122 -78 -177 -4 -47 -1 -63 24 -109 15 -30
33 -56 38 -58 6 -2 23 16 37 39 22 33 27 52 27 99 -1 52 3 63 52 140 84 132
169 251 192 270 31 25 91 38 132 29 75 -17 117 -65 119 -135 0 -40 -10 -59
-106 -202 -118 -176 -137 -197 -193 -216 -42 -15 -110 -90 -99 -109 4 -6 34
-9 78 -6 81 5 135 29 182 80 48 50 236 336 251 382 43 123 -33 260 -169 305
-46 15 -124 20 -163 11z"/>
<path d="M1128 4085 c-124 -31 -207 -143 -187 -251 15 -77 214 -415 266 -450
57 -39 160 -65 197 -51 35 14 -21 89 -89 120 -30 13 -51 35 -86 90 -104 161
-162 270 -167 313 -4 40 -2 47 35 83 61 61 150 68 212 15 27 -23 102 -139 189
-295 17 -30 31 -69 31 -85 0 -16 -1 -45 -2 -65 0 -22 9 -51 23 -74 l24 -38 32
37 c36 42 54 99 47 153 -7 60 -177 362 -238 425 -65 67 -188 98 -287 73z"/>
<path d="M2870 3652 c-8 -10 -66 -94 -129 -187 -63 -94 -162 -239 -219 -324
-128 -190 -130 -194 -97 -227 29 -29 56 -26 92 10 11 11 118 166 236 343 182
271 215 326 211 350 -9 50 -63 70 -94 35z"/>
<path d="M1312 3638 c-26 -26 -31 -16 227 -457 173 -295 186 -312 239 -288 33
15 38 50 12 94 -13 21 -99 169 -192 328 -93 160 -180 300 -194 313 -27 24 -73
29 -92 10z"/>
<path d="M2385 3197 c-39 -9 -82 -35 -116 -67 -9 -8 -53 -68 -97 -134 l-82
-118 -17 31 c-10 18 -45 74 -78 124 -53 81 -67 95 -115 119 -57 28 -138 42
-161 27 -24 -15 11 -60 81 -107 60 -39 71 -52 143 -173 72 -120 77 -133 68
-163 -5 -19 -8 -52 -7 -75 1 -22 1 -41 -1 -41 -1 0 -11 17 -22 38 -27 53 -55
82 -80 82 -23 0 -61 -33 -61 -53 0 -7 32 -69 71 -137 100 -175 99 -172 92
-184 -4 -6 -23 -33 -43 -61 -77 -108 -161 -243 -165 -267 -4 -19 1 -30 20 -42
54 -35 73 -19 201 173 l62 92 33 -58 c19 -32 39 -66 44 -75 6 -9 27 -46 47
-81 37 -64 52 -77 89 -77 29 0 58 35 52 62 -3 13 -9 28 -13 33 -5 6 -47 77
-94 158 l-86 148 105 157 c58 86 105 166 105 178 0 27 -40 49 -75 40 -15 -4
-39 -25 -57 -51 l-31 -44 -19 55 -19 56 84 127 c108 161 121 174 188 204 40
18 61 34 77 61 12 21 22 41 22 45 0 11 -98 10 -145 -2z m-294 -690 c-1 -12
-15 -9 -19 4 -3 6 1 10 8 8 6 -3 11 -8 11 -12z"/>
<path d="M1514 3077 c-32 -48 -40 -68 -43 -110 -4 -54 12 -93 96 -241 123
-214 142 -238 221 -276 42 -20 162 -36 162 -22 0 4 -10 25 -23 47 -15 28 -36
47 -69 62 -26 13 -58 38 -71 55 -37 49 -129 204 -167 281 -30 62 -32 72 -23
111 8 38 7 48 -15 85 -13 22 -29 41 -36 41 -6 0 -21 -15 -32 -33z"/>
<path d="M2653 3083 c-11 -16 -20 -56 -24 -98 -5 -71 -7 -73 -111 -231 -117
-175 -136 -196 -189 -213 -37 -12 -62 -35 -92 -82 -15 -25 -15 -27 3 -32 40
-10 131 3 178 26 39 19 62 43 130 137 112 157 194 293 202 338 8 48 -5 109
-33 149 -27 40 -41 41 -64 6z"/>
<path d="M1816 2298 c-70 -9 -133 -44 -174 -95 -44 -57 -201 -293 -224 -336
-37 -73 -28 -169 21 -227 l27 -32 28 42 c23 34 28 54 27 94 -1 60 13 88 111
236 104 155 133 188 179 202 40 11 109 78 109 104 0 17 -36 21 -104 12z"/>
<path d="M2245 2269 c-7 -11 18 -59 41 -80 11 -9 36 -24 56 -34 38 -17 66 -49
107 -120 152 -261 145 -245 141 -341 -1 -30 34 -104 50 -104 15 0 57 62 69
102 25 75 10 116 -125 344 -86 146 -119 184 -190 215 -45 21 -141 32 -149 18z"/>
<path d="M2044 2177 c-30 -46 -45 -99 -43 -145 3 -43 -15 -75 -145 -262 -66
-95 -96 -125 -135 -134 -34 -8 -61 -32 -89 -80 l-23 -39 78 5 c131 8 172 38
293 217 46 66 85 121 89 121 3 0 35 -51 71 -112 36 -62 78 -127 93 -145 40
-45 120 -82 187 -85 50 -3 55 -1 52 17 -7 35 -42 74 -92 101 -54 29 -98 89
-193 262 -41 73 -46 90 -46 143 1 46 -6 74 -26 115 -15 30 -32 54 -38 54 -7 0
-21 -15 -33 -33z"/>
<path d="M1660 1827 c-13 -7 -52 -51 -85 -99 -83 -120 -356 -526 -379 -564
-35 -59 2 -108 67 -90 15 4 84 100 226 314 113 169 212 316 221 327 9 11 23
35 30 54 13 31 12 35 -11 52 -28 22 -36 23 -69 6z"/>
<path d="M2425 1822 c-25 -5 -45 -30 -45 -55 0 -19 74 -152 289 -516 124 -211
136 -223 189 -185 28 19 28 49 0 94 -28 47 -144 243 -176 300 -52 93 -155 267
-186 312 -33 51 -40 56 -71 50z"/>
<path d="M1174 1391 c-84 -21 -115 -52 -250 -251 -117 -173 -138 -214 -136
-277 1 -67 41 -152 72 -153 3 0 16 16 28 35 18 26 24 50 26 98 2 57 7 73 45
133 94 151 186 274 216 288 17 7 43 20 59 27 31 15 80 84 71 99 -7 11 -85 12
-131 1z"/>
<path d="M2770 1364 c0 -5 10 -27 23 -49 15 -28 38 -48 72 -65 56 -28 98 -84
200 -267 56 -100 59 -109 60 -177 0 -51 5 -79 19 -98 23 -35 28 -35 59 2 56
66 60 158 11 246 -15 27 -32 58 -38 69 -56 102 -141 237 -168 264 -18 19 -52
43 -75 53 -46 20 -163 36 -163 22z"/>
<path d="M1437 1268 c-28 -44 -30 -50 -27 -113 1 -43 -42 -121 -163 -293 -66
-93 -87 -112 -140 -132 -42 -16 -108 -92 -93 -107 4 -4 36 -7 71 -6 70 1 128
24 178 71 44 41 243 342 260 393 18 53 14 105 -12 163 -30 68 -43 72 -74 24z"/>
<path d="M2586 1273 c-38 -40 -60 -104 -53 -154 6 -48 49 -132 149 -299 77
-127 120 -171 189 -195 42 -14 134 -23 144 -14 11 12 -55 92 -90 109 -68 34
-76 44 -179 222 -81 139 -97 179 -87 214 11 39 7 55 -22 104 l-25 42 -26 -29z"/>
<path d="M1032 913 c-11 -10 -121 -169 -245 -354 -235 -351 -241 -361 -196
-393 29 -20 66 -8 97 33 25 31 165 239 379 561 35 52 63 104 63 116 0 24 -34
54 -61 54 -9 0 -26 -8 -37 -17z"/>
<path d="M2939 896 c-31 -15 -35 -49 -11 -89 11 -17 29 -48 40 -67 69 -124
338 -577 348 -587 19 -19 69 -16 88 6 15 17 16 22 3 52 -26 64 -388 674 -405
684 -25 14 -37 14 -63 1z"/>
</g>
</svg>
